<?xml version="1.0" encoding="UTF-8" standalone="no"?>
<!-- Created with Inkscape (http://www.inkscape.org/) -->

<svg
   width="210mm"
   height="297mm"
   viewBox="0 0 210 297"
   version="1.1"
   id="svg1"
   inkscape:version="1.3.1 (91b66b0783, 2023-11-16)"
   sodipodi:docname="3.1.svg"
   xmlns:inkscape="http://www.inkscape.org/namespaces/inkscape"
   xmlns:sodipodi="http://sodipodi.sourceforge.net/DTD/sodipodi-0.dtd"
   xmlns="http://www.w3.org/2000/svg"
   xmlns:svg="http://www.w3.org/2000/svg">
  <sodipodi:namedview
     id="namedview1"
     pagecolor="#ffffff"
     bordercolor="#000000"
     borderopacity="0.25"
     inkscape:showpageshadow="2"
     inkscape:pageopacity="0.0"
     inkscape:pagecheckerboard="0"
     inkscape:deskcolor="#d1d1d1"
     inkscape:document-units="mm"
     inkscape:zoom="2.0686841"
     inkscape:cx="479.29018"
     inkscape:cy="652.34705"
     inkscape:window-width="1920"
     inkscape:window-height="1017"
     inkscape:window-x="-8"
     inkscape:window-y="-8"
     inkscape:window-maximized="1"
     inkscape:current-layer="layer1" />
  <defs
     id="defs1">
    <inkscape:path-effect
       effect="fillet_chamfer"
       id="path-effect11"
       is_visible="true"
       lpeversion="1"
       nodesatellites_param="F,0,0,1,0,0,0,1 @ F,0,0,1,0,0,0,1 @ F,0,0,1,0,0,0,1 @ F,0,0,1,0,0,0,1 @ F,0,0,1,0,0,0,1 @ F,0,0,1,0,0,0,1 @ F,0,0,1,0,0,0,1 @ F,0,0,1,0,0,0,1 @ F,0,0,1,0,0,0,1 @ F,0,0,1,0,0,0,1 @ F,0,0,1,0,0,0,1 @ F,0,0,1,0,0,0,1 @ F,0,0,1,0,0,0,1 @ F,0,0,1,0,0,0,1 @ F,0,0,1,0,0,0,1 @ F,0,0,1,0,0,0,1 @ F,0,0,1,0,0,0,1 @ F,0,0,1,0,0,0,1 @ F,0,0,1,0,0,0,1 @ F,0,0,1,0,0,0,1 @ F,0,0,1,0,0,0,1 @ F,0,0,1,0,0,0,1 @ F,0,0,1,0,0,0,1 @ F,0,0,1,0,0,0,1 @ F,0,0,1,0,0,0,1 @ F,0,0,1,0,0,0,1 @ F,0,0,1,0,0,0,1 @ F,0,0,1,0,0,0,1 @ F,0,0,1,0,0,0,1 @ F,0,0,1,0,0,0,1 @ F,0,0,1,0,0,0,1 @ F,0,0,1,0,0,0,1 @ F,0,0,1,0,0,0,1 @ F,0,0,1,0,0,0,1 | F,0,0,1,0,0,0,1 @ F,0,0,1,0,0,0,1 @ F,0,0,1,0,0,0,1 @ F,0,0,1,0,0,0,1 @ F,0,0,1,0,0,0,1 @ F,0,0,1,0,0,0,1 | F,0,0,1,0,0,0,1 @ F,0,0,1,0,0,0,1 @ F,0,0,1,0,0,0,1 @ F,0,0,1,0,0,0,1 @ F,0,0,1,0,0,0,1 @ F,0,0,1,0,0,0,1 @ F,0,0,1,0,0,0,1 @ F,0,0,1,0,0,0,1"
       radius="0"
       unit="px"
       method="auto"
       mode="F"
       chamfer_steps="1"
       flexible="false"
       use_knot_distance="true"
       apply_no_radius="true"
       apply_with_radius="true"
       only_selected="false"
       hide_knots="false" />
    <inkscape:path-effect
       effect="fillet_chamfer"
       id="path-effect10"
       is_visible="true"
       lpeversion="1"
       nodesatellites_param="F,0,0,1,0,0,0,1 @ F,0,0,1,0,0,0,1 @ F,0,0,1,0,0,0,1 @ F,0,0,1,0,0,0,1 @ F,0,0,1,0,0,0,1 @ F,0,0,1,0,0,0,1 @ F,0,0,1,0,0,0,1 @ F,0,0,1,0,0,0,1 @ F,0,0,1,0,0,0,1 @ F,0,0,1,0,0,0,1 @ F,0,0,1,0,0,0,1 @ F,0,0,1,0,0,0,1 @ F,0,0,1,0,0,0,1 @ F,0,0,1,0,0,0,1 @ F,0,0,1,0,0,0,1 @ F,0,0,1,0,0,0,1 @ F,0,0,1,0,0,0,1 @ F,0,0,1,0,0,0,1 @ F,0,0,1,0,0,0,1 @ F,0,0,1,0,0,0,1 @ F,0,0,1,0,0,0,1 @ F,0,0,1,0,0,0,1 @ F,0,0,1,0,0,0,1 @ F,0,0,1,0,0,0,1 @ F,0,0,1,0,0,0,1 @ F,0,0,1,0,0,0,1 @ F,0,0,1,0,0,0,1 @ F,0,0,1,0,0,0,1 @ F,0,0,1,0,0,0,1 @ F,0,0,1,0,0,0,1 @ F,0,0,1,0,0,0,1 @ F,0,0,1,0,0,0,1 @ F,0,0,1,0,0,0,1 @ F,0,0,1,0,0,0,1 | F,0,0,1,0,0,0,1 @ F,0,0,1,0,0,0,1 @ F,0,0,1,0,0,0,1 @ F,0,0,1,0,0,0,1 @ F,0,0,1,0,0,0,1 @ F,0,0,1,0,0,0,1 | F,0,0,1,0,0,0,1 @ F,0,0,1,0,0,0,1 @ F,0,0,1,0,0,0,1 @ F,0,0,1,0,0,0,1 @ F,0,0,1,0,0,0,1 @ F,0,0,1,0,0,0,1 @ F,0,0,1,0,0,0,1 @ F,0,0,1,0,0,0,1"
       radius="0"
       unit="px"
       method="auto"
       mode="F"
       chamfer_steps="1"
       flexible="false"
       use_knot_distance="true"
       apply_no_radius="true"
       apply_with_radius="true"
       only_selected="false"
       hide_knots="false" />
  </defs>
  <g
     inkscape:label="Слой 1"
     inkscape:groupmode="layer"
     id="layer1">
    <path
       id="path4"
       style="fill:#ff0014;fill-opacity:0.99141634;stroke:#000000;stroke-width:0.499999;stroke-miterlimit:9.3;stroke-dashoffset:3.86159;paint-order:stroke fill markers"
       d="M 57.010474 118.60361 L 56.772762 134.89771 L 71.901038 142.6745 C 71.901038 142.6745 71.947846 164.21887 71.072148 172.8432 C 69.320752 190.09186 81.214378 205.57426 97.66484 207.46021 C 110.42467 208.92304 122.19011 201.77512 127.69091 190.45142 C 126.15095 189.29938 124.7414 187.9611 123.48342 186.52453 C 123.22064 186.17906 122.94513 185.84572 122.6659 185.51581 C 118.78785 195.40288 109.03049 201.84701 98.372807 200.62755 C 85.489916 199.15347 76.175633 187.05252 77.547205 173.5708 C 78.23299 166.82994 80.373892 145.79467 86.768347 145.29242 L 86.246415 128.27692 L 57.010474 118.60361 z M 122.6659 185.51581 C 122.88257 184.9634 123.09722 184.40956 123.2762 183.83632 C 122.44092 182.98975 121.56308 182.18743 120.59316 181.4804 C 119.5714 180.39909 118.52601 179.32015 117.42332 178.30953 A 16.640682 17.002436 0 0 1 117.1143 180.01227 C 119.02682 181.78793 120.98071 183.52476 122.6659 185.51581 z M 117.1143 180.01227 C 116.39535 179.34477 115.682 178.67192 114.99298 177.97622 C 114.24255 177.00619 113.30566 176.2416 112.31097 175.54691 A 11.395249 11.395249 0 0 1 112.25361 177.26515 A 11.395249 11.395249 0 0 1 99.690556 187.32087 A 11.395249 11.395249 0 0 1 89.598149 174.78726 A 11.395249 11.395249 0 0 1 100.48069 164.60701 A 11.395249 11.395249 0 0 1 102.10229 164.65868 L 102.23407 164.67315 A 11.395249 11.395249 0 0 1 105.28298 165.46794 C 104.8096 163.44525 104.30792 161.429 103.76576 159.42334 A 16.640682 17.002436 0 0 0 102.83507 159.28382 L 102.64231 159.26211 A 16.640682 17.002436 0 0 0 100.27398 159.18512 A 16.640682 17.002436 0 0 0 84.38193 174.37489 A 16.640682 17.002436 0 0 0 99.120048 193.07607 A 16.640682 17.002436 0 0 0 117.1143 180.01227 z M 103.76576 159.42334 A 16.640682 17.002436 0 0 1 107.04256 160.36592 C 106.83386 159.54063 106.63383 158.71259 106.44932 157.87977 C 105.74562 155.37575 104.58341 153.03136 103.30687 150.77529 C 105.72294 148.15642 107.17443 144.8198 108.33034 141.49472 C 108.83976 139.71816 109.11048 137.88126 108.3908 136.11107 C 107.70659 134.40084 105.87157 133.61816 104.27374 132.99653 C 103.59616 132.7963 102.88631 132.70271 102.17981 132.72678 C 100.17394 132.69218 98.080277 134.19882 98.030192 136.31778 C 97.652986 139.89663 97.273642 143.6399 98.563493 147.10937 C 98.815861 147.80955 99.140503 148.4085 99.51744 149.09374 C 98.785375 149.76339 97.571716 150.23479 97.455033 151.3396 C 97.699641 152.34837 98.979609 152.42436 99.671952 153.0351 C 99.93456 153.47495 100.31555 153.06623 100.61711 152.88679 C 101.17428 152.31842 101.92482 152.91731 102.01858 153.5622 C 102.66757 155.49573 103.23359 157.45467 103.76576 159.42334 z M 107.04256 160.36592 C 107.65191 162.77551 108.33555 165.16227 108.92927 167.57944 C 108.9674 167.70998 108.98725 167.84346 109.02074 167.97476 A 11.395249 11.395249 0 0 1 112.24069 174.63947 C 112.30339 174.67711 112.36722 174.71279 112.42983 174.75057 C 114.28321 175.6673 115.9092 176.92182 117.42332 178.30953 A 16.640682 17.002436 0 0 0 117.46622 178.07182 A 16.640682 17.002436 0 0 0 107.04256 160.36592 z M 112.24069 174.63947 C 111.33691 174.09683 110.42632 173.56631 109.5158 173.03492 C 109.52321 171.33426 109.44221 169.62736 109.02074 167.97476 A 11.395249 11.395249 0 0 0 105.28298 165.46794 C 105.47372 166.28293 105.66582 167.09774 105.85142 167.91326 C 105.98801 168.90964 106.04188 169.91438 106.12324 170.91618 C 104.01229 170.03353 101.67183 169.63031 99.404268 170.06249 C 96.281992 169.62864 92.775197 171.80457 92.395911 175.06063 C 92.056271 177.73115 93.879707 180.15331 96.042716 181.50933 C 97.38274 182.39537 98.813079 183.22298 100.34891 183.69266 C 102.96759 184.05263 105.99989 184.01602 108.05852 182.11705 C 109.48936 180.64392 109.4875 178.43428 109.58401 176.51222 C 109.60841 175.58884 109.56562 174.66569 109.55662 173.74237 C 110.46404 174.3462 111.41086 174.91827 112.31097 175.54691 A 11.395249 11.395249 0 0 0 112.24069 174.63947 z M 123.2762 183.83632 C 124.99345 185.5768 126.52797 187.50723 128.2361 189.26132 C 129.52507 186.30521 130.40234 183.09238 130.76721 179.68722 C 131.22901 175.3778 130.41174 167.73986 131.18941 159.93752 C 131.99613 151.84372 123.45684 141.21197 129.25206 138.77344 L 113.45096 134.52357 L 116.01824 144.54777 C 128.97111 146.62539 125.74279 165.44668 124.29629 178.91983 C 124.1133 180.62425 123.76605 182.26741 123.2762 183.83632 z M 128.2361 189.26132 C 128.06118 189.66247 127.88102 190.06007 127.69091 190.45142 C 129.56536 191.85369 131.63683 192.97502 133.91017 193.59594 C 135.62257 194.09409 137.71602 194.17158 139.58838 193.80729 C 142.1347 193.35473 144.53762 192.36517 146.98224 191.55678 C 145.62576 190.09611 143.44121 189.22573 141.49266 189.94603 C 140.13075 190.5862 138.74906 191.21504 137.24434 191.43379 C 134.89113 191.86502 132.36679 191.85348 130.11195 191.0302 C 129.45074 190.47731 128.83572 189.87707 128.2361 189.26132 z M 104.79515 134.96385 C 104.95134 134.95669 105.10763 134.95871 105.26179 134.96902 C 105.27288 135.14007 105.28378 135.31164 105.29486 135.48269 C 105.66672 139.3271 103.79759 142.89012 101.97207 146.13165 C 101.61577 146.96939 101.40189 147.08011 101.40518 146.08462 C 100.96639 142.89592 100.86631 139.52273 102.04287 136.47642 C 102.59888 135.49702 103.70184 135.01402 104.79515 134.96385 z M 104.08409 172.2205 C 104.77449 172.2347 105.46091 172.30252 106.14443 172.39826 C 106.05363 174.42894 106.22441 176.50945 105.75065 178.49815 C 104.98821 180.57892 102.61987 181.41239 100.58352 181.55481 C 99.571409 181.61871 98.456391 181.69879 97.521696 181.31761 C 95.629186 179.30689 95.287225 175.69687 97.429712 173.73617 C 98.87486 172.57741 100.82901 172.50114 102.58805 172.26752 C 103.08546 172.22682 103.58504 172.2178 104.08409 172.2205 z " />
  </g>
</svg>
