<?xml version="1.0" encoding="UTF-8" standalone="no"?>
<!-- Created with Inkscape (http://www.inkscape.org/) -->

<svg
   width="210mm"
   height="297mm"
   viewBox="0 0 210 297"
   version="1.1"
   id="svg1"
   inkscape:version="1.3.1 (91b66b0783, 2023-11-16)"
   sodipodi:docname="3,3.svg"
   xmlns:inkscape="http://www.inkscape.org/namespaces/inkscape"
   xmlns:sodipodi="http://sodipodi.sourceforge.net/DTD/sodipodi-0.dtd"
   xmlns="http://www.w3.org/2000/svg"
   xmlns:svg="http://www.w3.org/2000/svg">
  <sodipodi:namedview
     id="namedview1"
     pagecolor="#ffffff"
     bordercolor="#000000"
     borderopacity="0.25"
     inkscape:showpageshadow="2"
     inkscape:pageopacity="0.0"
     inkscape:pagecheckerboard="0"
     inkscape:deskcolor="#d1d1d1"
     inkscape:document-units="mm"
     inkscape:zoom="0.73139029"
     inkscape:cx="563.99436"
     inkscape:cy="509.304"
     inkscape:window-width="1920"
     inkscape:window-height="1017"
     inkscape:window-x="-8"
     inkscape:window-y="-8"
     inkscape:window-maximized="1"
     inkscape:current-layer="svg1" />
  <defs
     id="defs1" />
  <g
     id="g4246"
     transform="translate(-47.028015,-62.945189)">
    <path
       d="m 104.433,63.4887 c 1.186,0.0229 2.037,0.2024 1.904,0.4014 -0.005,0.0074 -0.011,0.0147 -0.019,0.0219 -0.194,0.1875 -1.226,0.3197 -2.368,0.2987 v 0 c -1.186,-0.0217 -2.044,-0.2005 -1.918,-0.3996 0.005,-0.007 0.01,-0.0139 0.017,-0.0208 0.184,-0.1882 1.214,-0.322 2.359,-0.3021"
       style="fill:none;fill-opacity:0;stroke:#000000;stroke-width:0.135166px"
       id="path4168" />
    <path
       d="m 104.435,63.517 c 1.192,0.0232 2.049,0.2044 1.916,0.4053 -0.005,0.0074 -0.012,0.0148 -0.019,0.0221 -0.195,0.1895 -1.234,0.3231 -2.384,0.3019 v 0 c -1.193,-0.022 -2.056,-0.2024 -1.929,-0.4034 0.004,-0.0071 0.01,-0.0141 0.017,-0.021 0.185,-0.1903 1.221,-0.3255 2.374,-0.3054"
       style="fill:none;fill-opacity:0;stroke:#000000;stroke-width:0.135351px"
       id="path4169" />
    <path
       d="m 104.439,63.5944 c 1.212,0.0238 2.083,0.2096 1.948,0.4158 -0.004,0.0076 -0.011,0.0151 -0.018,0.0226 -0.197,0.1949 -1.255,0.3324 -2.425,0.3106 v 0 c -1.213,-0.0225 -2.09,-0.2076 -1.962,-0.4138 0.004,-0.0072 0.01,-0.0144 0.017,-0.0215 0.187,-0.1957 1.241,-0.3348 2.414,-0.3142"
       style="fill:none;fill-opacity:0;stroke:#000000;stroke-width:0.135858px"
       id="path4170" />
    <path
       d="m 104.446,63.7172 c 1.243,0.0247 2.137,0.2179 2,0.4323 -0.005,0.0078 -0.011,0.0156 -0.019,0.0234 -0.201,0.2035 -1.287,0.3472 -2.489,0.3245 v 0 c -1.244,-0.0235 -2.144,-0.2158 -2.015,-0.4304 0.005,-0.0074 0.01,-0.0148 0.017,-0.0221 0.191,-0.2044 1.274,-0.3498 2.479,-0.3282"
       style="fill:none;fill-opacity:0;stroke:#000000;stroke-width:0.136661px"
       id="path4171" />
    <path
       d="m 104.455,63.8834 c 1.285,0.026 2.21,0.2291 2.071,0.4547 -0.006,0.0082 -0.012,0.0164 -0.02,0.0245 -0.205,0.2152 -1.331,0.3673 -2.577,0.3433 v 0 c -1.286,-0.0247 -2.217,-0.2269 -2.085,-0.4527 0.004,-0.0078 0.01,-0.0155 0.017,-0.0232 0.195,-0.216 1.318,-0.3699 2.567,-0.3472"
       style="fill:none;fill-opacity:0;stroke:#000000;stroke-width:0.137748px"
       id="path4172" />
    <path
       d="m 104.466,64.0918 c 1.339,0.0276 2.301,0.2432 2.159,0.4829 -0.005,0.0086 -0.012,0.0172 -0.02,0.0257 -0.211,0.2299 -1.386,0.3926 -2.686,0.367 v 0 c -1.34,-0.0262 -2.31,-0.2409 -2.175,-0.4808 0.005,-0.0082 0.011,-0.0164 0.018,-0.0245 0.201,-0.2306 1.372,-0.3952 2.676,-0.3709"
       style="fill:none;fill-opacity:0;stroke:#000000;stroke-width:0.139111px"
       id="path4173" />
    <path
       d="m 104.48,64.3415 c 1.402,0.0296 2.411,0.26 2.264,0.5166 -0.005,0.0092 -0.012,0.0183 -0.02,0.0273 -0.219,0.2474 -1.452,0.4228 -2.818,0.3953 v 0 c -1.404,-0.0281 -2.42,-0.2576 -2.281,-0.5144 0.005,-0.0088 0.011,-0.0174 0.018,-0.026 0.208,-0.2483 1.438,-0.4255 2.807,-0.3994"
       style="fill:none;fill-opacity:0;stroke:#000000;stroke-width:0.140744px"
       id="path4174" />
    <path
       d="m 104.496,64.6316 c 1.475,0.0319 2.538,0.2797 2.387,0.5559 -0.006,0.0098 -0.013,0.0195 -0.021,0.0291 -0.227,0.2678 -1.529,0.4579 -2.972,0.4282 v 0 c -1.476,-0.0303 -2.547,-0.2771 -2.404,-0.5535 0.005,-0.0093 0.011,-0.0186 0.019,-0.0278 0.216,-0.2686 1.514,-0.4607 2.96,-0.4325"
       style="fill:none;fill-opacity:0;stroke:#000000;stroke-width:0.142643px"
       id="path4175" />
    <path
       d="m 104.514,64.9617 c 1.559,0.0345 2.682,0.302 2.527,0.6004 -0.006,0.0105 -0.013,0.0209 -0.022,0.0313 -0.236,0.291 -1.617,0.4978 -3.146,0.4655 v 0 c -1.56,-0.0327 -2.692,-0.2991 -2.545,-0.5979 0.006,-0.01 0.012,-0.0199 0.02,-0.0298 0.225,-0.2918 1.601,-0.5008 3.133,-0.4702"
       style="fill:none;fill-opacity:0;stroke:#000000;stroke-width:0.144802px"
       id="path4176" />
    <path
       d="m 104.534,65.3312 c 1.653,0.0374 2.844,0.3269 2.683,0.6503 -0.006,0.0112 -0.013,0.0225 -0.022,0.0336 -0.247,0.317 -1.715,0.5425 -3.341,0.5074 v 0 c -1.655,-0.0355 -2.855,-0.3239 -2.702,-0.6477 0.005,-0.0108 0.012,-0.0214 0.02,-0.032 0.235,-0.3179 1.698,-0.5457 3.327,-0.5124"
       style="fill:none;fill-opacity:0;stroke:#000000;stroke-width:0.147219px"
       id="path4177" />
    <path
       d="m 104.557,65.7395 c 1.756,0.0406 3.023,0.3545 2.855,0.7055 -0.006,0.0121 -0.014,0.0242 -0.023,0.0362 -0.259,0.3457 -1.823,0.5919 -3.556,0.5536 v 0 c -1.759,-0.0385 -3.035,-0.3512 -2.876,-0.7027 0.005,-0.0115 0.012,-0.023 0.021,-0.0345 0.246,-0.3465 1.805,-0.5951 3.541,-0.5589"
       style="fill:none;fill-opacity:0;stroke:#000000;stroke-width:0.14989px"
       id="path4178" />
    <path
       d="m 104.581,66.1864 c 1.87,0.0441 3.219,0.3846 3.045,0.7658 -0.007,0.013 -0.015,0.0261 -0.024,0.039 -0.272,0.3771 -1.942,0.646 -3.792,0.6043 v 0 c -1.872,-0.0419 -3.232,-0.3812 -3.067,-0.7629 0.006,-0.0124 0.013,-0.0249 0.022,-0.0372 0.258,-0.378 1.922,-0.6494 3.776,-0.6099"
       style="fill:none;fill-opacity:0;stroke:#000000;stroke-width:0.152813px"
       id="path4179" />
    <path
       d="m 104.608,66.6714 c 1.993,0.0478 3.431,0.4173 3.249,0.8312 -0.006,0.0141 -0.014,0.0282 -0.025,0.0422 -0.286,0.4111 -2.07,0.7046 -4.048,0.6592 v 0 c -1.995,-0.0455 -3.444,-0.4137 -3.272,-0.8282 0.005,-0.0134 0.013,-0.0268 0.022,-0.0402 0.272,-0.4121 2.05,-0.7082 4.031,-0.6652"
       style="fill:none;fill-opacity:0;stroke:#000000;stroke-width:0.155985px"
       id="path4180" />
    <path
       d="m 104.636,67.1942 c 2.126,0.0519 3.661,0.4526 3.471,0.9018 -0.007,0.0152 -0.015,0.0304 -0.026,0.0455 -0.301,0.4479 -2.209,0.7678 -4.324,0.7184 v 0 c -2.128,-0.0494 -3.675,-0.4488 -3.495,-0.8986 0.006,-0.0145 0.014,-0.029 0.023,-0.0434 0.286,-0.4488 2.187,-0.7717 4.306,-0.7248"
       style="fill:none;fill-opacity:0;stroke:#000000;stroke-width:0.159405px"
       id="path4181" />
    <path
       d="m 104.667,67.7544 c 2.268,0.0564 3.906,0.4905 3.708,0.9775 -0.007,0.0164 -0.016,0.0328 -0.028,0.0491 -0.317,0.4872 -2.357,0.8356 -4.619,0.7818 v 0 c -2.271,-0.0535 -3.9214,-0.4862 -3.7338,-0.974 0.0058,-0.0156 0.0148,-0.0312 0.0248,-0.0468 0.301,-0.4882 2.333,-0.8397 4.599,-0.7887"
       style="fill:none;fill-opacity:0;stroke:#000000;stroke-width:0.16307px"
       id="path4182" />
    <path
       d="m 104.7,68.3519 c 2.419,0.061 4.168,0.5308 3.96,1.0582 -0.007,0.0176 -0.017,0.0353 -0.028,0.0528 -0.335,0.5293 -2.516,0.9079 -4.935,0.8496 v 0 c -2.423,-0.058 -4.1845,-0.5263 -3.9883,-1.0545 0.0065,-0.0168 0.015,-0.0336 0.0256,-0.0504 0.3177,-0.5303 2.4907,-0.9122 4.9137,-0.8569"
       style="fill:none;fill-opacity:0;stroke:#000000;stroke-width:0.166978px"
       id="path4183" />
    <path
       d="m 104.734,68.9864 c 2.581,0.066 4.446,0.5736 4.229,1.1438 -0.007,0.019 -0.017,0.038 -0.029,0.0569 -0.353,0.5739 -2.684,0.9846 -5.27,0.9214 v 0 c -2.584,-0.0627 -4.4637,-0.5688 -4.2584,-1.1399 0.0067,-0.0181 0.0157,-0.0362 0.0267,-0.0543 0.335,-0.5749 2.6567,-0.9892 5.2467,-0.9293"
       style="fill:none;fill-opacity:0;stroke:#000000;stroke-width:0.171128px"
       id="path4184" />
    <path
       d="m 104.771,69.6575 c 2.751,0.0713 4.74,0.619 4.513,1.2345 -0.008,0.0204 -0.018,0.0408 -0.031,0.0612 -0.372,0.621 -2.862,1.0658 -5.624,0.9974 v 0 c -2.754,-0.0677 -4.7591,-0.6137 -4.5441,-1.2303 0.007,-0.0195 0.0164,-0.0389 0.0279,-0.0584 0.3534,-0.622 2.8332,-1.0706 5.5992,-1.0058"
       style="fill:none;fill-opacity:0;stroke:#000000;stroke-width:0.175519px"
       id="path4185" />
    <path
       d="m 104.81,70.3652 c 2.93,0.0768 5.05,0.6667 4.812,1.3301 -0.008,0.0219 -0.019,0.0437 -0.033,0.0656 -0.392,0.6708 -3.049,1.1514 -5.997,1.0776 v 0 c -2.934,-0.073 -5.0704,-0.6612 -4.8452,-1.3256 0.0073,-0.0209 0.0171,-0.0418 0.0292,-0.0627 0.3728,-0.6718 3.019,-1.1565 5.971,-1.0866"
       style="fill:none;fill-opacity:0;stroke:#000000;stroke-width:0.180148px"
       id="path4186" />
    <path
       d="m 104.851,71.1092 c 3.119,0.0826 5.376,0.7169 5.126,1.4305 -0.008,0.0235 -0.02,0.0469 -0.034,0.0704 -0.414,0.723 -3.246,1.2413 -6.39,1.1618 v 0 c -3.123,-0.0785 -5.3975,-0.711 -5.1617,-1.4257 0.0077,-0.0224 0.0179,-0.0449 0.0306,-0.0673 0.3931,-0.7241 3.2141,-1.2467 6.3621,-1.1714"
       style="fill:none;fill-opacity:0;stroke:#000000;stroke-width:0.185014px"
       id="path4187" />
    <path
       d="m 104.894,71.8893 c 3.316,0.0887 5.717,0.7696 5.456,1.5358 -0.009,0.0251 -0.021,0.0502 -0.036,0.0753 -0.436,0.7779 -3.453,1.3358 -6.801,1.2502 v 0 c -3.322,-0.0843 -5.7414,-0.7632 -5.4944,-1.5307 0.008,-0.024 0.0187,-0.048 0.032,-0.072 0.4145,-0.779 3.4194,-1.3415 6.7714,-1.2605"
       style="fill:none;fill-opacity:0;stroke:#000000;stroke-width:0.190117px"
       id="path4188" />
    <path
       d="m 104.938,72.7052 c 3.524,0.0952 6.076,0.8247 5.802,1.6461 -0.01,0.0268 -0.022,0.0537 -0.037,0.0805 -0.461,0.8352 -3.67,1.4344 -7.233,1.3426 v 0 c -3.5288,-0.0904 -6.1,-0.8179 -5.8413,-1.6406 0.0084,-0.0257 0.0196,-0.0513 0.0335,-0.077 0.4369,-0.8364 3.6338,-1.4405 7.1998,-1.3535"
       style="fill:none;fill-opacity:0;stroke:#000000;stroke-width:0.195454px"
       id="path4189" />
    <path
       d="m 104.985,73.557 c 3.74,0.1018 6.448,0.8821 6.162,1.761 -0.01,0.0286 -0.023,0.0573 -0.039,0.0859 -0.485,0.8951 -3.896,1.5375 -7.682,1.4391 v 0 c -3.7456,-0.0967 -6.4752,-0.8749 -6.2042,-1.7553 0.0087,-0.0274 0.0204,-0.0547 0.035,-0.0821 0.4602,-0.8963 3.8572,-1.5439 7.6472,-1.4507"
       style="fill:none;fill-opacity:0;stroke:#000000;stroke-width:0.201026px"
       id="path4190" />
    <path
       d="m 105.034,74.4442 c 3.964,0.1088 6.837,0.9421 6.536,1.8809 -0.01,0.0305 -0.023,0.0611 -0.04,0.0916 -0.511,0.9575 -4.131,1.6448 -8.15,1.5396 v 0 c -3.9714,-0.1034 -6.8659,-0.9344 -6.5822,-1.8748 0.0091,-0.0292 0.0214,-0.0584 0.0367,-0.0876 0.4845,-0.9586 4.0905,-1.6515 8.1135,-1.5519"
       style="fill:none;fill-opacity:0;stroke:#000000;stroke-width:0.20683px"
       id="path4191" />
    <path
       d="m 105.084,75.367 c 4.199,0.1159 7.242,1.0043 6.927,2.0054 -0.01,0.0325 -0.025,0.065 -0.042,0.0975 -0.537,1.0223 -4.376,1.7563 -8.637,1.6441 v 0 c -4.2059,-0.1103 -7.272,-0.9962 -6.975,-1.999 0.0095,-0.0311 0.0222,-0.0622 0.0383,-0.0933 0.5098,-1.0235 4.3327,-1.7634 8.5977,-1.6571"
       style="fill:none;fill-opacity:0;stroke:#000000;stroke-width:0.212866px"
       id="path4192" />
    <path
       d="m 105.137,76.3249 c 4.441,0.1235 7.661,1.0691 7.332,2.1349 -0.011,0.0344 -0.026,0.069 -0.045,0.1035 -0.564,1.0896 -4.629,1.8722 -9.142,1.7526 v 0 c -4.4493,-0.1174 -7.6935,-1.0604 -7.3827,-2.128 0.0099,-0.033 0.0232,-0.066 0.04,-0.0991 0.5361,-1.0909 4.5837,-1.8797 9.1007,-1.7664"
       style="fill:none;fill-opacity:0;stroke:#000000;stroke-width:0.219132px"
       id="path4193" />
    <path
       d="m 105.191,77.318 c 4.694,0.1313 8.096,1.1361 7.752,2.269 -0.011,0.0365 -0.027,0.0732 -0.046,0.1098 -0.594,1.1594 -4.893,1.9924 -9.667,1.8651 v 0 c -4.7014,-0.1248 -8.1303,-1.1269 -7.8052,-2.2617 0.0103,-0.035 0.0243,-0.0701 0.0419,-0.1051 0.5632,-1.1608 4.8443,-2.0003 9.6223,-1.8798"
       style="fill:none;fill-opacity:0;stroke:#000000;stroke-width:0.225628px"
       id="path4194" />
    <path
       d="m 105.247,78.3461 c 4.955,0.1393 8.547,1.2055 8.187,2.4078 -0.012,0.0387 -0.028,0.0775 -0.048,0.1163 -0.623,1.2317 -5.166,2.1167 -10.209,1.9816 v 0 c -4.9633,-0.1325 -8.5833,-1.1958 -8.2434,-2.4002 0.0107,-0.0371 0.0253,-0.0742 0.0437,-0.1113 0.5914,-1.2331 5.1147,-2.1251 10.1627,-1.9971"
       style="fill:none;fill-opacity:0;stroke:#000000;stroke-width:0.232353px"
       id="path4195" />
    <path
       d="m 105.306,79.409 c 5.224,0.1477 9.012,1.2773 8.636,2.5513 -0.012,0.041 -0.029,0.0821 -0.051,0.1232 -0.654,1.3064 -5.447,2.2452 -10.769,2.1019 v 0 c -5.2338,-0.1404 -9.0514,-1.2669 -8.6963,-2.5433 0.0112,-0.0392 0.0264,-0.0785 0.0457,-0.1178 0.6205,-1.3078 5.3934,-2.254 10.7206,-2.1183"
       style="fill:none;fill-opacity:0;stroke:#000000;stroke-width:0.239306px"
       id="path4196" />
    <path
       d="m 105.366,80.5067 c 5.502,0.1562 9.493,1.3513 9.1,2.6995 -0.013,0.0433 -0.03,0.0867 -0.052,0.1301 -0.686,1.3836 -5.739,2.378 -11.349,2.2263 h -0.001 c -5.5119,-0.1486 -9.5336,-1.3405 -9.1627,-2.6911 0.0116,-0.0415 0.0275,-0.083 0.0476,-0.1245 0.6506,-1.385 5.6816,-2.3873 11.2971,-2.2435"
       style="fill:none;fill-opacity:0;stroke:#000000;stroke-width:0.246486px"
       id="path4197" />
    <path
       d="m 105.428,81.6389 c 5.79,0.1651 9.989,1.4278 9.579,2.8525 -0.013,0.0457 -0.032,0.0914 -0.055,0.1373 -0.718,1.4631 -6.039,2.5149 -11.946,2.3545 h -0.001 c -5.7997,-0.157 -10.0319,-1.4163 -9.6447,-2.8436 0.0121,-0.0437 0.0287,-0.0875 0.0497,-0.1314 0.6816,-1.4646 5.9789,-2.5246 11.892,-2.3727"
       style="fill:none;fill-opacity:0;stroke:#000000;stroke-width:0.253893px"
       id="path4198" />
    <path
       d="m 105.492,82.8057 c 6.086,0.1742 10.501,1.5065 10.073,3.0099 -0.015,0.0482 -0.034,0.0965 -0.058,0.1448 -0.752,1.5451 -6.348,2.6561 -12.562,2.4867 v 0 c -6.097,-0.1657 -10.5461,-1.4945 -10.1422,-3.0007 0.0127,-0.0461 0.03,-0.0923 0.0519,-0.1386 0.7135,-1.5466 6.2851,-2.6662 12.5053,-2.5057"
       style="fill:none;fill-opacity:0;stroke:#000000;stroke-width:0.261525px"
       id="path4199" />
    <path
       d="m 105.557,84.0068 c 6.391,0.1836 11.028,1.5876 10.581,3.1722 -0.014,0.0507 -0.034,0.1015 -0.06,0.1523 -0.786,1.6296 -6.666,2.8014 -13.196,2.6228 v -1e-4 c -6.4018,-0.1746 -11.0742,-1.5749 -10.6531,-3.1623 0.0132,-0.0486 0.0312,-0.0972 0.0541,-0.1459 0.7464,-1.6311 6.6004,-2.812 13.136,-2.6428"
       style="fill:none;fill-opacity:0;stroke:#000000;stroke-width:0.269381px"
       id="path4200" />
    <path
       d="m 105.625,85.2422 c 6.704,0.1933 11.569,1.671 11.103,3.339 -0.015,0.0533 -0.036,0.1067 -0.062,0.1602 -0.822,1.7163 -6.994,2.9508 -13.848,2.7626 v 0 c -6.7161,-0.1838 -11.6182,-1.6577 -11.1793,-3.3287 0.0137,-0.051 0.0324,-0.1022 0.0563,-0.1534 0.7802,-1.718 6.9248,-2.9619 13.785,-2.7837"
       style="fill:none;fill-opacity:0;stroke:#000000;stroke-width:0.277462px"
       id="path4201" />
    <path
       d="m 105.695,86.5117 c 7.026,0.2033 12.125,1.7568 11.64,3.5104 -0.016,0.056 -0.038,0.1121 -0.065,0.1683 -0.859,1.8056 -7.331,3.1044 -14.518,2.9065 v 0 c -7.0389,-0.1933 -12.1771,-1.7428 -11.7199,-3.4997 0.0143,-0.0536 0.0338,-0.1073 0.0586,-0.1612 0.815,-1.8072 7.2581,-3.1159 14.4513,-2.9285"
       style="fill:none;fill-opacity:0;stroke:#000000;stroke-width:0.285767px"
       id="path4202" />
    <path
       d="m 105.766,87.8153 c 7.357,0.2135 12.696,1.8448 12.192,3.6865 -0.017,0.0587 -0.039,0.1176 -0.068,0.1765 -0.897,1.8972 -7.676,3.2621 -15.206,3.0541 v 0 c -7.3701,-0.2029 -12.7506,-1.83 -12.2747,-3.6752 0.0148,-0.0562 0.0351,-0.1126 0.0609,-0.1691 0.8508,-1.8989 7.6003,-3.2741 15.1358,-3.0772"
       style="fill:none;fill-opacity:0;stroke:#000000;stroke-width:0.294294px"
       id="path4203" />
    <path
       d="m 105.839,89.1528 c 7.697,0.224 13.282,1.9351 12.758,3.8671 -0.018,0.0616 -0.041,0.1233 -0.071,0.1851 -0.935,1.9912 -8.031,3.4238 -15.911,3.2056 v 0 c -7.7107,-0.2129 -13.3399,-1.9197 -12.8448,-3.8553 0.0154,-0.0589 0.0365,-0.118 0.0634,-0.1772 0.8874,-1.993 7.9514,-3.4365 15.8384,-3.2299"
       style="fill:none;fill-opacity:0;stroke:#000000;stroke-width:0.303043px"
       id="path4204" />
    <path
       d="m 105.915,90.5243 c 8.044,0.2347 13.883,2.0276 13.337,4.0522 -0.018,0.0645 -0.042,0.1291 -0.073,0.1938 -0.975,2.0876 -8.395,3.5897 -16.636,3.361 v 0 c -8.0587,-0.2232 -13.9429,-2.0116 -13.4281,-4.04 0.016,-0.0617 0.0379,-0.1236 0.0659,-0.1856 0.925,-2.0894 8.3115,-3.6029 16.5592,-3.3863"
       style="fill:none;fill-opacity:0;stroke:#000000;stroke-width:0.312014px"
       id="path4205" />
    <path
       d="m 105.992,91.9294 c 8.4,0.2458 14.498,2.1225 13.931,4.2421 -0.019,0.0674 -0.044,0.135 -0.076,0.2027 -1.015,2.1864 -8.767,3.7598 -17.377,3.5201 v 0 c -8.416,-0.2336 -14.5615,-2.1057 -14.0264,-4.2292 0.0165,-0.0645 0.0393,-0.1293 0.0684,-0.1941 0.9634,-2.1883 8.6804,-3.7735 17.297,-3.5466"
       style="fill:none;fill-opacity:0;stroke:#000000;stroke-width:0.321206px"
       id="path4206" />
    <path
       d="m 106.07,93.3683 c 8.766,0.257 15.13,2.2196 14.54,4.4363 -0.019,0.0705 -0.045,0.1411 -0.078,0.2119 -1.058,2.2875 -9.149,3.9335 -18.137,3.6835 v 0 c -8.7816,-0.245 -15.1946,-2.2025 -14.6389,-4.4233 0.0172,-0.0675 0.0408,-0.1352 0.0711,-0.203 1.0028,-2.2894 9.0581,-3.948 18.0528,-3.7107"
       style="fill:none;fill-opacity:0;stroke:#000000;stroke-width:0.330618px"
       id="path4207" />
    <path
       d="m 106.151,94.8408 c 9.139,0.2685 15.774,2.319 15.163,4.6351 -0.02,0.0736 -0.047,0.1474 -0.082,0.2213 -1.1,2.3908 -9.539,4.1118 -18.913,3.8498 v 0 c -9.1566,-0.255 -15.8433,-2.301 -15.2664,-4.6212 0.0178,-0.0704 0.0423,-0.1411 0.0737,-0.2119 1.0432,-2.3929 9.4447,-4.1267 18.8267,-3.8787"
       style="fill:none;fill-opacity:0;stroke:#000000;stroke-width:0.34025px"
       id="path4208" />
    <path
       d="m 106.234,96.3467 c 9.521,0.2804 16.434,2.4207 15.799,4.8383 -0.021,0.077 -0.049,0.154 -0.085,0.231 -1.143,2.497 -9.938,4.294 -19.708,4.021 v 0 c -9.5387,-0.267 -16.5055,-2.402 -15.907,-4.824 0.0185,-0.074 0.0439,-0.148 0.0765,-0.222 1.0844,-2.4984 9.84,-4.309 19.6175,-4.0501"
       style="fill:none;fill-opacity:0;stroke:#000000;stroke-width:0.350101px"
       id="path4209" />
    <path
       d="m 106.318,97.8861 c 9.912,0.2924 17.109,2.5249 16.45,5.0469 -0.021,0.08 -0.05,0.16 -0.087,0.24 -1.188,2.605 -10.347,4.48 -20.521,4.195 v 0 c -9.9302,-0.278 -17.1831,-2.505 -16.5625,-5.031 0.0191,-0.077 0.0455,-0.154 0.0793,-0.231 1.1266,-2.6069 10.2442,-4.4961 20.4262,-4.2259"
       style="fill:none;fill-opacity:0;stroke:#000000;stroke-width:0.360171px"
       id="path4210" />
    <path
       d="m 106.404,99.4588 c 10.311,0.3048 17.798,2.6312 17.116,5.2592 -0.022,0.083 -0.053,0.166 -0.091,0.25 -1.233,2.716 -10.764,4.671 -21.351,4.373 v 0 c -10.3298,-0.29 -17.8752,-2.61 -17.2319,-5.243 0.0197,-0.08 0.0471,-0.16 0.0821,-0.24 1.1697,-2.718 10.6571,-4.687 21.2518,-4.4054"
       style="fill:none;fill-opacity:0;stroke:#000000;stroke-width:0.370458px"
       id="path4211" />
    <path
       d="m 106.492,101.065 c 10.718,0.317 18.502,2.739 17.795,5.475 -0.023,0.087 -0.054,0.174 -0.094,0.261 -1.28,2.829 -11.19,4.865 -22.198,4.555 v 0 c -10.7386,-0.302 -18.5826,-2.717 -17.9163,-5.459 0.0205,-0.083 0.0488,-0.166 0.0851,-0.25 1.2137,-2.831 11.0787,-4.882 22.0952,-4.589"
       style="fill:none;fill-opacity:0;stroke:#000000;stroke-width:0.380964px"
       id="path4212" />
    <path
       d="m 106.582,102.704 c 11.134,0.33 19.22,2.85 18.488,5.697 -0.024,0.09 -0.056,0.181 -0.098,0.271 -1.326,2.944 -11.624,5.063 -23.062,4.741 h -10e-4 c -11.1546,-0.314 -19.3033,-2.828 -18.6135,-5.68 0.0212,-0.087 0.0505,-0.173 0.0881,-0.26 1.2585,-2.946 11.509,-5.081 22.9564,-4.776"
       style="fill:none;fill-opacity:0;stroke:#000000;stroke-width:0.391686px"
       id="path4213" />
    <path
       d="m 106.673,104.376 c 11.559,0.344 19.953,2.963 19.196,5.923 -0.025,0.094 -0.058,0.188 -0.101,0.282 -1.375,3.061 -12.068,5.265 -23.945,4.93 h -10e-4 c -11.5797,-0.326 -20.0394,-2.939 -19.3255,-5.905 0.0219,-0.09 0.0522,-0.18 0.0911,-0.27 1.3044,-3.064 11.948,-5.284 23.8344,-4.967"
       style="fill:none;fill-opacity:0;stroke:#000000;stroke-width:0.402625px"
       id="path4214" />
    <path
       d="m 106.767,106.082 c 11.991,0.356 20.7,3.078 19.916,6.153 -0.025,0.097 -0.059,0.195 -0.104,0.293 -1.424,3.181 -12.52,5.471 -24.845,5.123 v 0 c -12.014,-0.339 -20.7907,-3.054 -20.0523,-6.135 0.0226,-0.093 0.054,-0.187 0.0942,-0.281 1.3511,-3.183 12.3957,-5.49 24.7301,-5.161"
       style="fill:none;fill-opacity:0;stroke:#000000;stroke-width:0.41378px"
       id="path4215" />
    <path
       d="m 106.862,107.82 c 12.432,0.37 21.462,3.195 20.652,6.388 -0.026,0.101 -0.062,0.202 -0.108,0.304 -1.475,3.303 -12.981,5.681 -25.763,5.32 v 0 c -12.4553,-0.352 -21.5552,-3.171 -20.7918,-6.369 0.0233,-0.097 0.0557,-0.194 0.0973,-0.291 1.3987,-3.306 12.8521,-5.702 25.6435,-5.36"
       style="fill:none;fill-opacity:0;stroke:#000000;stroke-width:0.425151px"
       id="path4216" />
    <path
       d="m 106.959,109.591 c 12.882,0.384 22.238,3.315 21.401,6.627 -0.027,0.105 -0.064,0.21 -0.111,0.315 -1.526,3.428 -13.451,5.896 -26.698,5.521 v 0 c -12.9057,-0.365 -22.3349,-3.289 -21.5461,-6.607 0.0241,-0.101 0.0576,-0.201 0.1006,-0.302 1.4472,-3.431 13.317,-5.917 26.5735,-5.562"
       style="fill:none;fill-opacity:0;stroke:#000000;stroke-width:0.436737px"
       id="path4217" />
    <path
       d="m 107.058,111.395 c 13.339,0.399 23.028,3.437 22.164,6.871 -0.028,0.108 -0.066,0.217 -0.115,0.326 -1.578,3.555 -13.929,6.115 -27.65,5.725 v 0 c -13.3642,-0.378 -23.1288,-3.409 -22.3141,-6.85 0.0249,-0.104 0.0595,-0.208 0.1039,-0.313 1.4966,-3.557 13.7907,-6.135 27.5212,-5.767"
       style="fill:none;fill-opacity:0;stroke:#000000;stroke-width:0.448538px"
       id="path4218" />
    <path
       d="m 107.159,113.232 c 13.805,0.413 23.832,3.561 22.94,7.119 -0.029,0.112 -0.068,0.225 -0.118,0.338 -1.632,3.684 -14.416,6.336 -28.619,5.933 v 0 c -13.8317,-0.392 -23.9378,-3.533 -23.0967,-7.098 0.0257,-0.107 0.0613,-0.215 0.1072,-0.324 1.5469,-3.686 14.2729,-6.358 28.4855,-5.976"
       style="fill:none;fill-opacity:0;stroke:#000000;stroke-width:0.460554px"
       id="path4219" />
    <path
       d="m 107.261,115.102 c 14.279,0.427 24.652,3.686 23.731,7.371 -0.029,0.116 -0.07,0.233 -0.122,0.35 -1.685,3.815 -14.912,6.562 -29.605,6.145 h -0.001 c -14.3062,-0.407 -24.76,-3.658 -23.8919,-7.35 0.0264,-0.111 0.0632,-0.223 0.1106,-0.335 1.5981,-3.818 14.7637,-6.586 29.4683,-6.19"
       style="fill:none;fill-opacity:0;stroke:#000000;stroke-width:0.472783px"
       id="path4220" />
    <path
       d="m 107.365,117.004 c 14.762,0.442 25.486,3.815 24.536,7.628 -0.031,0.12 -0.073,0.241 -0.126,0.362 -1.74,3.949 -15.416,6.792 -30.609,6.36 h -10e-4 c -14.7897,-0.42 -25.5971,-3.785 -24.7018,-7.605 0.0273,-0.116 0.0652,-0.231 0.1141,-0.347 1.6502,-3.952 15.2631,-6.817 30.4667,-6.407"
       style="fill:none;fill-opacity:0;stroke:#000000;stroke-width:0.485225px"
       id="path4221" />
    <path
       d="m 107.471,118.939 c 15.253,0.457 26.333,3.945 25.354,7.889 -0.031,0.124 -0.075,0.249 -0.13,0.374 -1.796,4.085 -15.929,7.027 -31.63,6.58 v 0 c -15.2822,-0.435 -26.4493,-3.915 -25.5262,-7.866 0.0281,-0.12 0.0672,-0.239 0.1176,-0.359 1.7032,-4.088 15.771,-7.051 31.4826,-6.628"
       style="fill:none;fill-opacity:0;stroke:#000000;stroke-width:0.497881px"
       id="path4222" />
    <path
       d="m 107.579,120.906 c 15.752,0.473 27.195,4.079 26.186,8.155 -0.032,0.128 -0.077,0.257 -0.134,0.387 -1.853,4.223 -16.451,7.264 -32.668,6.802 h -10e-4 c -15.7817,-0.45 -27.3145,-4.047 -26.3631,-8.131 0.0289,-0.123 0.0692,-0.247 0.1211,-0.371 1.7571,-4.226 16.2875,-7.29 32.516,-6.852"
       style="fill:none;fill-opacity:0;stroke:#000000;stroke-width:0.51075px"
       id="path4223" />
    <path
       d="m 107.689,122.906 c 16.259,0.488 28.071,4.213 27.031,8.424 -0.033,0.133 -0.079,0.267 -0.138,0.4 -1.911,4.364 -16.981,7.506 -33.723,7.029 h -10e-4 c -16.2901,-0.465 -28.1947,-4.181 -27.2146,-8.4 0.0298,-0.128 0.0713,-0.255 0.1248,-0.383 1.8119,-4.367 16.8125,-7.533 33.5668,-7.081"
       style="fill:none;fill-opacity:0;stroke:#000000;stroke-width:0.52383px"
       id="path4224" />
    <path
       d="m 107.8,124.938 c 16.775,0.504 28.962,4.351 27.891,8.699 -0.034,0.137 -0.082,0.275 -0.142,0.413 -1.97,4.506 -17.52,7.752 -34.796,7.259 l -0.001,-0.001 c -16.8064,-0.479 -29.0889,-4.316 -28.0795,-8.673 0.0306,-0.132 0.0734,-0.263 0.1285,-0.396 1.8675,-4.509 17.3459,-7.779 34.634,-7.312"
       style="fill:none;fill-opacity:0;stroke:#000000;stroke-width:0.537123px"
       id="path4225" />
    <path
       d="m 107.913,127.002 c 17.298,0.521 29.866,4.49 28.764,8.978 -0.035,0.142 -0.084,0.284 -0.146,0.426 -2.029,4.651 -18.067,8.002 -35.886,7.493 v 0 c -17.3316,-0.495 -29.9979,-4.455 -28.9589,-8.952 0.0315,-0.136 0.0755,-0.272 0.1322,-0.408 1.9241,-4.655 17.888,-8.03 35.7187,-7.548"
       style="fill:none;fill-opacity:0;stroke:#000000;stroke-width:0.550627px"
       id="path4226" />
    <path
       d="m 108.028,129.099 c 17.83,0.537 30.785,4.632 29.65,9.261 -0.036,0.146 -0.086,0.292 -0.15,0.439 -2.089,4.799 -18.623,8.256 -36.992,7.73 v 0 c -17.8647,-0.51 -30.9209,-4.595 -29.8517,-9.234 0.0324,-0.139 0.0777,-0.28 0.1361,-0.42 1.9815,-4.802 18.4383,-8.284 36.8196,-7.787"
       style="fill:none;fill-opacity:0;stroke:#000000;stroke-width:0.564343px"
       id="path4227" />
    <path
       d="m 108.145,131.228 c 18.37,0.553 31.718,4.775 30.55,9.549 -0.037,0.15 -0.088,0.301 -0.154,0.452 -2.151,4.949 -19.187,8.513 -38.115,7.972 h -0.001 c -18.4057,-0.527 -31.8577,-4.739 -30.7579,-9.521 0.0333,-0.144 0.0799,-0.289 0.1399,-0.434 2.0399,-4.952 18.9973,-8.542 37.938,-8.03"
       style="fill:none;fill-opacity:0;stroke:#000000;stroke-width:0.578269px"
       id="path4228" />
    <path
       d="m 108.263,133.389 c 18.919,0.571 32.665,4.921 31.465,9.841 -0.038,0.155 -0.091,0.31 -0.159,0.466 -2.214,5.1 -19.76,8.774 -39.256,8.216 v 0 C 81.3575,151.37 67.5037,147.029 68.6345,142.1 c 0.0343,-0.148 0.0821,-0.297 0.1439,-0.447 2.099,-5.103 19.5646,-8.804 39.0726,-8.276"
       style="fill:none;fill-opacity:0;stroke:#000000;stroke-width:0.592406px"
       id="path4229" />
    <path
       d="m 108.383,135.582 c 19.475,0.588 33.626,5.07 32.392,10.137 -0.039,0.16 -0.093,0.32 -0.163,0.48 -2.277,5.255 -20.342,9.04 -40.413,8.465 v 0 c -19.5132,-0.559 -33.7747,-5.03 -32.6124,-10.107 0.0352,-0.153 0.0844,-0.307 0.1478,-0.46 2.1591,-5.258 20.1405,-9.071 40.2246,-8.527"
       style="fill:none;fill-opacity:0;stroke:#000000;stroke-width:0.606753px"
       id="path4230" />
    <path
       d="m 108.505,137.808 c 20.04,0.605 34.601,5.219 33.333,10.437 -0.04,0.164 -0.095,0.329 -0.167,0.494 -2.341,5.411 -20.932,9.309 -41.588,8.717 v 0 c -20.0787,-0.575 -34.754,-5.179 -33.5596,-10.407 0.0361,-0.157 0.0866,-0.315 0.1518,-0.474 2.2201,-5.414 20.7247,-9.341 41.3938,-8.78"
       style="fill:none;fill-opacity:0;stroke:#000000;stroke-width:0.62131px"
       id="path4231" />
    <path
       d="m 108.629,140.065 c 20.612,0.623 35.59,5.372 34.288,10.742 -0.041,0.169 -0.099,0.339 -0.172,0.509 -2.407,5.569 -21.531,9.582 -42.7792,8.972 h -4e-4 c -20.6524,-0.592 -35.7474,-5.33 -34.5206,-10.711 0.0371,-0.162 0.089,-0.324 0.156,-0.487 2.2819,-5.573 21.3172,-9.615 42.5792,-9.038"
       style="fill:none;fill-opacity:0;stroke:#000000;stroke-width:0.636076px"
       id="path4232" />
    <path
       d="m 108.754,142.354 c 21.193,0.641 36.593,5.527 35.256,11.052 -0.042,0.173 -0.101,0.348 -0.176,0.523 -2.473,5.73 -22.138,9.859 -43.9873,9.232 h -5e-4 c -21.2342,-0.61 -36.7549,-5.484 -35.4952,-11.019 0.038,-0.167 0.0913,-0.334 0.1601,-0.502 2.3446,-5.734 21.9183,-9.893 43.7819,-9.299"
       style="fill:none;fill-opacity:0;stroke:#000000;stroke-width:0.651051px"
       id="path4233" />
    <path
       d="m 108.881,144.676 c 21.782,0.659 37.611,5.683 36.238,11.364 -0.043,0.179 -0.104,0.358 -0.181,0.538 -2.54,5.894 -22.753,10.14 -45.212,9.495 h -5e-4 c -21.8244,-0.627 -37.7766,-5.639 -36.4836,-11.332 0.039,-0.171 0.0937,-0.343 0.1643,-0.515 2.4082,-5.898 22.5277,-10.175 45.0008,-9.564"
       style="fill:none;fill-opacity:0;stroke:#000000;stroke-width:0.666235px"
       id="path4234" />
    <path
       d="m 109.01,147.029 c 22.379,0.677 38.642,5.842 37.233,11.682 -0.044,0.184 -0.106,0.368 -0.186,0.553 -2.607,6.059 -23.377,10.424 -46.4535,9.761 h -5e-4 c -22.4225,-0.644 -38.8122,-5.796 -37.4854,-11.648 0.04,-0.176 0.0961,-0.353 0.1686,-0.53 2.4727,-6.063 23.1455,-10.46 46.2368,-9.832"
       style="fill:none;fill-opacity:0;stroke:#000000;stroke-width:0.681628px"
       id="path4235" />
    <path
       d="m 109.141,149.414 c 22.984,0.696 39.686,6.003 38.241,12.004 -0.045,0.189 -0.109,0.378 -0.19,0.568 -2.677,6.227 -24.01,10.713 -47.7125,10.032 h -6e-4 c -23.0288,-0.662 -39.8619,-5.957 -38.5008,-11.97 0.0411,-0.181 0.0986,-0.362 0.173,-0.544 2.5379,-6.231 23.7715,-10.75 47.4899,-10.105"
       style="fill:none;fill-opacity:0;stroke:#000000;stroke-width:0.697228px"
       id="path4236" />
    <path
       d="m 109.273,151.83 c 23.598,0.715 40.746,6.167 39.264,12.331 -0.047,0.194 -0.112,0.389 -0.196,0.584 -2.746,6.396 -24.65,11.005 -48.9873,10.305 h -5e-4 C 75.71,174.37 58.4275,168.932 59.8234,162.755 c 0.0421,-0.186 0.1011,-0.372 0.1774,-0.559 2.6041,-6.401 24.406,-11.043 48.7592,-10.38"
       style="fill:none;fill-opacity:0;stroke:#000000;stroke-width:0.713037px"
       id="path4237" />
    <path
       d="m 109.408,154.279 c 24.218,0.734 41.818,6.332 40.299,12.661 -0.048,0.199 -0.115,0.399 -0.201,0.599 -2.817,6.569 -25.299,11.302 -50.2797,10.583 h -5e-4 c -24.2656,-0.698 -42.0033,-6.283 -40.5722,-12.625 0.0431,-0.191 0.1036,-0.382 0.1818,-0.574 2.6712,-6.573 25.0488,-11.34 50.0446,-10.659"
       style="fill:none;fill-opacity:0;stroke:#000000;stroke-width:0.729053px"
       id="path4238" />
    <path
       d="m 109.544,156.759 c 24.847,0.754 42.904,6.499 41.347,12.996 -0.049,0.205 -0.117,0.41 -0.205,0.615 -2.889,6.743 -25.957,11.601 -51.5887,10.864 h -6e-4 c -24.896,-0.717 -43.0948,-6.449 -41.6281,-12.959 0.0442,-0.196 0.1061,-0.392 0.1863,-0.589 2.7391,-6.748 25.6999,-11.641 51.3471,-10.943"
       style="fill:none;fill-opacity:0;stroke:#000000;stroke-width:0.745276px"
       id="path4239" />
    <path
       d="m 109.681,159.271 c 25.485,0.773 44.005,6.668 42.41,13.335 -0.05,0.21 -0.12,0.42 -0.211,0.631 -2.961,6.919 -26.622,11.905 -52.9134,11.148 h -6e-4 c -25.5345,-0.735 -44.2003,-6.617 -42.6975,-13.297 0.0452,-0.201 0.1087,-0.402 0.1908,-0.605 2.808,-6.923 26.3593,-11.945 52.6667,-11.228"
       style="fill:none;fill-opacity:0;stroke:#000000;stroke-width:0.761707px"
       id="path4240" />
    <path
       d="m 109.82,161.814 c 26.13,0.793 45.12,6.841 43.486,13.679 -0.051,0.215 -0.123,0.431 -0.216,0.647 -3.034,7.098 -27.297,12.213 -54.2557,11.436 h -6e-4 c -26.1811,-0.754 -45.3198,-6.787 -43.7804,-13.639 0.0463,-0.206 0.1113,-0.413 0.1955,-0.62 2.8776,-7.103 27.027,-12.255 54.0022,-11.519"
       style="fill:none;fill-opacity:0;stroke:#000000;stroke-width:0.778344px"
       id="path4241" />
    <path
       d="m 109.962,164.389 c 26.783,0.813 46.248,7.014 44.574,14.027 -0.053,0.22 -0.126,0.441 -0.221,0.663 -3.109,7.279 -27.98,12.524 -55.6147,11.728 h -6e-4 c -26.8356,-0.774 -46.4531,-6.96 -44.8767,-13.986 0.0474,-0.212 0.114,-0.424 0.2002,-0.636 2.9481,-7.284 27.703,-12.567 55.3548,-11.813"
       style="fill:none;fill-opacity:0;stroke:#000000;stroke-width:0.795187px"
       id="path4242" />
    <path
       d="m 110.104,166.995 c 27.445,0.834 47.39,7.191 45.677,14.379 -0.054,0.226 -0.129,0.453 -0.226,0.68 -3.184,7.462 -28.671,12.839 -56.9903,12.023 h -6e-4 c -27.4982,-0.793 -47.6002,-7.134 -45.9864,-14.337 0.0485,-0.217 0.1167,-0.434 0.2049,-0.652 3.0195,-7.467 28.3872,-12.883 56.7244,-12.11"
       style="fill:none;fill-opacity:0;stroke:#000000;stroke-width:0.812237px"
       id="path4243" />
    <path
       d="m 110.249,169.633 c 28.113,0.855 48.546,7.369 46.792,14.735 -0.055,0.232 -0.132,0.464 -0.231,0.697 -3.261,7.648 -29.371,13.158 -58.3825,12.322 h -7e-4 c -28.1687,-0.813 -48.7612,-7.311 -47.1095,-14.693 0.0497,-0.221 0.1194,-0.444 0.2097,-0.667 3.0918,-7.653 29.0798,-13.203 58.11,-12.411"
       style="fill:none;fill-opacity:0;stroke:#000000;stroke-width:0.829492px"
       id="path4244" />
    <path
       d="m 110.395,172.303 c 28.791,0.875 49.716,7.548 47.921,15.095 -0.056,0.237 -0.135,0.475 -0.237,0.714 -3.337,7.835 -30.078,13.481 -59.7904,12.624 h -7e-4 c -28.8473,-0.833 -49.9361,-7.49 -48.246,-15.052 0.0508,-0.227 0.1222,-0.455 0.2146,-0.684 3.1649,-7.84 29.7805,-13.527 59.5115,-12.715"
       style="fill:none;fill-opacity:0;stroke:#000000;stroke-width:0.846953px"
       id="path4245" />
    <path
       d="m 110.543,175.003 c 29.476,0.897 50.899,7.731 49.063,15.461 -0.057,0.242 -0.138,0.486 -0.242,0.73 -3.416,8.025 -30.794,13.808 -61.2159,12.93 h -7e-4 c -29.5338,-0.852 -51.1247,-7.67 -49.3959,-15.415 0.052,-0.233 0.125,-0.466 0.2195,-0.701 3.2389,-8.03 30.4896,-13.854 60.93,-13.023"
       style="fill:none;fill-opacity:0;stroke:#000000;stroke-width:0.864619px"
       id="path4246" />
  </g>
  <g
     id="g6167"
     transform="translate(15.55542,-154.46894)">
    <path
       d="m 177.21,275.229 -56.703,-0.189 28.629,-28.816 z"
       style="fill:none;fill-opacity:0;stroke:#000000;stroke-width:0.565451px"
       id="path6143" />
    <path
       d="m 176.973,271.772 -56.229,0.654 28.245,-28.999 z"
       style="fill:none;fill-opacity:0;stroke:#000000;stroke-width:0.562724px"
       id="path6144" />
    <path
       d="m 176.737,268.315 -55.756,1.497 27.861,-29.182 z"
       style="fill:none;fill-opacity:0;stroke:#000000;stroke-width:0.559997px"
       id="path6145" />
    <path
       d="m 176.501,264.858 -55.283,2.34 27.478,-29.365 z"
       style="fill:none;fill-opacity:0;stroke:#000000;stroke-width:0.55727px"
       id="path6146" />
    <path
       d="m 176.264,261.401 -54.809,3.183 27.094,-29.548 z"
       style="fill:none;fill-opacity:0;stroke:#000000;stroke-width:0.554542px"
       id="path6147" />
    <path
       d="m 176.028,257.944 -54.336,4.026 26.711,-29.731 z"
       style="fill:none;fill-opacity:0;stroke:#000000;stroke-width:0.551815px"
       id="path6148" />
    <path
       d="m 175.792,254.487 -53.863,4.869 26.327,-29.915 z"
       style="fill:none;fill-opacity:0;stroke:#000000;stroke-width:0.549088px"
       id="path6149" />
    <path
       d="m 175.555,251.03 -53.389,5.712 25.944,-30.098 z"
       style="fill:none;fill-opacity:0;stroke:#000000;stroke-width:0.546361px"
       id="path6150" />
    <path
       d="m 175.319,247.573 -52.916,6.555 25.56,-30.281 z"
       style="fill:none;fill-opacity:0;stroke:#000000;stroke-width:0.543634px"
       id="path6151" />
    <path
       d="m 175.083,244.116 -52.444,7.397 25.177,-30.463 z"
       style="fill:none;fill-opacity:0;stroke:#000000;stroke-width:0.540907px"
       id="path6152" />
    <path
       d="m 174.847,240.659 -51.971,8.24 24.794,-30.646 z"
       style="fill:none;fill-opacity:0;stroke:#000000;stroke-width:0.538179px"
       id="path6153" />
    <path
       d="m 174.61,237.202 -51.497,9.083 24.41,-30.829 z"
       style="fill:none;fill-opacity:0;stroke:#000000;stroke-width:0.535452px"
       id="path6154" />
    <path
       d="m 174.374,233.745 -51.024,9.926 24.027,-31.012 z"
       style="fill:none;fill-opacity:0;stroke:#000000;stroke-width:0.532725px"
       id="path6155" />
    <path
       d="m 174.138,230.288 -50.551,10.769 23.643,-31.195 z"
       style="fill:none;fill-opacity:0;stroke:#000000;stroke-width:0.529998px"
       id="path6156" />
    <path
       d="m 173.901,226.831 -50.077,11.612 23.259,-31.378 z"
       style="fill:none;fill-opacity:0;stroke:#000000;stroke-width:0.527271px"
       id="path6157" />
    <path
       d="m 173.665,223.374 -49.604,12.455 22.876,-31.561 z"
       style="fill:none;fill-opacity:0;stroke:#000000;stroke-width:0.524544px"
       id="path6158" />
    <path
       d="m 173.429,219.917 -49.131,13.298 22.492,-31.744 z"
       style="fill:none;fill-opacity:0;stroke:#000000;stroke-width:0.521816px"
       id="path6159" />
    <path
       d="m 173.192,216.46 -48.657,14.141 22.109,-31.928 z"
       style="fill:none;fill-opacity:0;stroke:#000000;stroke-width:0.519089px"
       id="path6160" />
    <path
       d="m 172.956,213.003 -48.184,14.984 21.725,-32.111 z"
       style="fill:none;fill-opacity:0;stroke:#000000;stroke-width:0.516362px"
       id="path6161" />
    <path
       d="m 172.72,209.546 -47.711,15.827 21.341,-32.294 z"
       style="fill:none;fill-opacity:0;stroke:#000000;stroke-width:0.513635px"
       id="path6162" />
    <path
       d="m 172.484,206.089 -47.238,16.67 20.958,-32.477 z"
       style="fill:none;fill-opacity:0;stroke:#000000;stroke-width:0.510908px"
       id="path6163" />
    <path
       d="m 172.247,202.632 -46.764,17.513 20.574,-32.66 z"
       style="fill:none;fill-opacity:0;stroke:#000000;stroke-width:0.508181px"
       id="path6164" />
    <path
       d="M 172.011,199.175 125.72,217.53 145.911,184.688 Z"
       style="fill:none;fill-opacity:0;stroke:#000000;stroke-width:0.505453px"
       id="path6165" />
    <path
       d="m 171.775,195.718 -45.818,19.198 19.807,-33.025 z"
       style="fill:none;fill-opacity:0;stroke:#000000;stroke-width:0.502726px"
       id="path6166" />
    <path
       d="m 171.538,192.261 -45.344,20.041 19.424,-33.208 z"
       style="fill:none;fill-opacity:0;stroke:#000000;stroke-width:0.499999px"
       id="path6167" />
  </g>
  <g
     id="g6241"
     transform="translate(-49.198538,-24.237515)">
    <path
       d="m 148.634,267.165 c -15.223,-2.603 -26.825,-7.176 -30.078,-11.854 -3.253,-4.678 2.386,-8.681 14.62,-10.378 12.233,-1.697 29.018,-0.803 43.515,2.316 z"
       style="fill:none;fill-opacity:0;stroke:#000000;stroke-width:0.71168px"
       id="path6217" />
    <path
       d="m 148.796,265.035 c -15.223,-2.603 -26.825,-7.175 -30.078,-11.854 -3.253,-4.678 2.386,-8.681 14.62,-10.378 12.233,-1.696 29.018,-0.803 43.515,2.316 z"
       style="fill:none;fill-opacity:0;stroke:#000000;stroke-width:0.71168px"
       id="path6218" />
    <path
       d="m 148.958,262.906 c -15.224,-2.604 -26.825,-7.176 -30.078,-11.854 -3.253,-4.679 2.386,-8.682 14.62,-10.378 12.233,-1.697 29.018,-0.804 43.515,2.315 z"
       style="fill:none;fill-opacity:0;stroke:#000000;stroke-width:0.71168px"
       id="path6219" />
    <path
       d="m 149.119,260.776 c -15.223,-2.603 -26.825,-7.176 -30.078,-11.854 -3.252,-4.678 2.387,-8.681 14.62,-10.378 12.234,-1.697 29.019,-0.803 43.515,2.316 z"
       style="fill:none;fill-opacity:0;stroke:#000000;stroke-width:0.71168px"
       id="path6220" />
    <path
       d="m 149.281,258.646 c -15.223,-2.603 -26.825,-7.175 -30.078,-11.854 -3.253,-4.678 2.387,-8.681 14.62,-10.378 12.234,-1.696 29.019,-0.803 43.515,2.316 z"
       style="fill:none;fill-opacity:0;stroke:#000000;stroke-width:0.71168px"
       id="path6221" />
    <path
       d="m 149.443,256.517 c -15.223,-2.604 -26.825,-7.176 -30.078,-11.854 -3.253,-4.679 2.387,-8.682 14.62,-10.378 12.234,-1.697 29.019,-0.804 43.515,2.315 z"
       style="fill:none;fill-opacity:0;stroke:#000000;stroke-width:0.71168px"
       id="path6222" />
    <path
       d="m 149.605,254.387 c -15.223,-2.603 -26.825,-7.176 -30.078,-11.854 -3.253,-4.678 2.386,-8.681 14.62,-10.378 12.233,-1.697 29.018,-0.803 43.515,2.316 z"
       style="fill:none;fill-opacity:0;stroke:#000000;stroke-width:0.71168px"
       id="path6223" />
    <path
       d="m 149.767,252.257 c -15.223,-2.603 -26.825,-7.175 -30.078,-11.854 -3.253,-4.678 2.386,-8.681 14.62,-10.378 12.233,-1.696 29.018,-0.803 43.515,2.316 z"
       style="fill:none;fill-opacity:0;stroke:#000000;stroke-width:0.71168px"
       id="path6224" />
    <path
       d="m 149.929,250.128 c -15.224,-2.604 -26.825,-7.176 -30.078,-11.854 -3.253,-4.679 2.386,-8.682 14.62,-10.378 12.233,-1.697 29.018,-0.804 43.515,2.315 z"
       style="fill:none;fill-opacity:0;stroke:#000000;stroke-width:0.71168px"
       id="path6225" />
    <path
       d="m 150.09,247.998 c -15.223,-2.603 -26.825,-7.176 -30.078,-11.854 -3.252,-4.678 2.387,-8.681 14.62,-10.378 12.234,-1.697 29.019,-0.803 43.515,2.316 z"
       style="fill:none;fill-opacity:0;stroke:#000000;stroke-width:0.71168px"
       id="path6226" />
    <path
       d="m 150.252,245.868 c -15.223,-2.603 -26.825,-7.175 -30.078,-11.854 -3.253,-4.678 2.387,-8.681 14.62,-10.378 12.234,-1.696 29.019,-0.803 43.515,2.316 z"
       style="fill:none;fill-opacity:0;stroke:#000000;stroke-width:0.71168px"
       id="path6227" />
    <path
       d="m 150.414,243.739 c -15.223,-2.604 -26.825,-7.176 -30.078,-11.854 -3.253,-4.679 2.387,-8.682 14.62,-10.378 12.234,-1.697 29.019,-0.804 43.515,2.315 z"
       style="fill:none;fill-opacity:0;stroke:#000000;stroke-width:0.71168px"
       id="path6228" />
    <path
       d="m 150.576,241.609 c -15.223,-2.603 -26.825,-7.176 -30.078,-11.854 -3.253,-4.678 2.386,-8.681 14.62,-10.378 12.233,-1.697 29.018,-0.803 43.515,2.316 z"
       style="fill:none;fill-opacity:0;stroke:#000000;stroke-width:0.71168px"
       id="path6229" />
    <path
       d="m 150.738,239.479 c -15.223,-2.603 -26.825,-7.175 -30.078,-11.854 -3.253,-4.678 2.386,-8.681 14.62,-10.378 12.233,-1.696 29.018,-0.803 43.515,2.316 z"
       style="fill:none;fill-opacity:0;stroke:#000000;stroke-width:0.71168px"
       id="path6230" />
    <path
       d="m 150.9,237.35 c -15.224,-2.604 -26.825,-7.176 -30.078,-11.854 -3.253,-4.679 2.386,-8.682 14.62,-10.378 12.233,-1.697 29.018,-0.804 43.515,2.315 z"
       style="fill:none;fill-opacity:0;stroke:#000000;stroke-width:0.71168px"
       id="path6231" />
    <path
       d="m 151.061,235.22 c -15.223,-2.603 -26.825,-7.176 -30.078,-11.854 -3.252,-4.678 2.387,-8.681 14.62,-10.378 12.234,-1.697 29.019,-0.803 43.515,2.316 z"
       style="fill:none;fill-opacity:0;stroke:#000000;stroke-width:0.71168px"
       id="path6232" />
    <path
       d="m 151.223,233.09 c -15.223,-2.603 -26.825,-7.175 -30.078,-11.854 -3.253,-4.678 2.387,-8.681 14.62,-10.378 12.234,-1.696 29.019,-0.803 43.515,2.316 z"
       style="fill:none;fill-opacity:0;stroke:#000000;stroke-width:0.71168px"
       id="path6233" />
    <path
       d="m 151.385,230.961 c -15.223,-2.604 -26.825,-7.176 -30.078,-11.854 -3.253,-4.679 2.387,-8.682 14.62,-10.378 12.234,-1.697 29.019,-0.804 43.515,2.315 z"
       style="fill:none;fill-opacity:0;stroke:#000000;stroke-width:0.71168px"
       id="path6234" />
    <path
       d="m 151.547,228.831 c -15.223,-2.603 -26.825,-7.176 -30.078,-11.854 -3.253,-4.678 2.386,-8.681 14.62,-10.378 12.233,-1.697 29.018,-0.803 43.515,2.316 z"
       style="fill:none;fill-opacity:0;stroke:#000000;stroke-width:0.71168px"
       id="path6235" />
    <path
       d="m 151.709,226.701 c -15.223,-2.603 -26.825,-7.175 -30.078,-11.854 -3.253,-4.678 2.386,-8.681 14.62,-10.378 12.233,-1.696 29.018,-0.803 43.515,2.316 z"
       style="fill:none;fill-opacity:0;stroke:#000000;stroke-width:0.71168px"
       id="path6236" />
    <path
       d="m 151.871,224.572 c -15.224,-2.604 -26.825,-7.176 -30.078,-11.854 -3.253,-4.679 2.386,-8.682 14.62,-10.378 12.233,-1.697 29.018,-0.804 43.515,2.315 z"
       style="fill:none;fill-opacity:0;stroke:#000000;stroke-width:0.71168px"
       id="path6237" />
    <path
       d="m 152.032,222.442 c -15.223,-2.603 -26.825,-7.176 -30.078,-11.854 -3.252,-4.678 2.387,-8.681 14.62,-10.378 12.234,-1.697 29.019,-0.803 43.516,2.316 z"
       style="fill:none;fill-opacity:0;stroke:#000000;stroke-width:0.71168px"
       id="path6238" />
    <path
       d="m 152.194,220.312 c -15.223,-2.603 -26.825,-7.175 -30.078,-11.854 -3.253,-4.678 2.387,-8.681 14.62,-10.378 12.234,-1.696 29.019,-0.803 43.515,2.316 z"
       style="fill:none;fill-opacity:0;stroke:#000000;stroke-width:0.71168px"
       id="path6239" />
    <path
       d="m 152.356,218.183 c -15.223,-2.604 -26.825,-7.176 -30.078,-11.854 -3.253,-4.679 2.387,-8.682 14.62,-10.378 12.234,-1.697 29.019,-0.804 43.515,2.315 z"
       style="fill:none;fill-opacity:0;stroke:#000000;stroke-width:0.71168px"
       id="path6240" />
    <path
       d="m 152.518,216.053 c -15.223,-2.603 -26.825,-7.176 -30.078,-11.854 -3.253,-4.678 2.386,-8.681 14.62,-10.378 12.233,-1.697 29.018,-0.803 43.515,2.316 z"
       style="fill:none;fill-opacity:0;stroke:#000000;stroke-width:0.71168px"
       id="path6241" />
  </g>
</svg>
